<?xml version="1.0" standalone="no"?>
<!DOCTYPE svg PUBLIC "-//W3C//DTD SVG 20010904//EN"
 "http://www.w3.org/TR/2001/REC-SVG-20010904/DTD/svg10.dtd">
<svg version="1.0" xmlns="http://www.w3.org/2000/svg"
 width="256.000000pt" height="256.000000pt" viewBox="0 0 256.000000 256.000000"
 preserveAspectRatio="xMidYMid meet">
<metadata>
Created by potrace 1.10, written by Peter Selinger 2001-2011
</metadata>
<g transform="translate(0.000000,256.000000) scale(0.050000,-0.050000)"
fill="#000000" stroke="none">
<path d="M1711 4867 c-72 -1357 -106 -1510 -356 -1640 -117 -60 -448 64 -775
292 -254 177 -422 285 -431 276 -5 -4 155 -179 356 -387 1062 -1103 1031
-1299 -250 -1599 -129 -30 -235 -61 -235 -68 0 -7 254 -24 565 -37 1476 -62
1574 -198 924 -1278 -85 -141 -159 -263 -163 -271 -28 -50 54 22 370 327 1110
1073 1369 1045 1594 -174 78 -421 78 -420 108 272 63 1494 202 1589 1321 903
126 -78 233 -137 238 -133 4 5 -145 168 -333 364 -1098 1147 -1060 1386 261
1616 279 48 244 63 -180 78 -1670 59 -1784 193 -1106 1299 79 130 140 241 134
247 -6 6 -167 -138 -357 -320 -1129 -1080 -1363 -1050 -1597 206 -57 305 -72
310 -88 27z m1306 -937 c-25 -93 -10 -207 43 -309 l38 -76 -117 48 c-64 26
-184 57 -266 70 l-150 23 92 47 c51 26 156 100 233 164 162 136 155 134 127
33z m-1005 -187 c42 -34 107 -68 143 -75 63 -12 112 -48 64 -48 -53 0 -279
-125 -369 -204 -64 -56 -92 -72 -81 -46 32 79 66 245 80 398 l15 156 36 -58
c19 -33 70 -88 112 -123z m734 -312 c464 -99 777 -554 695 -1012 -128 -715
-992 -991 -1503 -481 -619 620 -48 1674 808 1493z m997 -165 l173 -12 -82 -62
c-90 -69 -153 -162 -173 -259 -14 -62 -15 -60 -85 87 -38 83 -99 185 -133 228
-35 43 -63 80 -63 83 0 3 43 -8 95 -24 52 -16 173 -34 268 -41z m-2180 -221
c-57 -115 -89 -223 -102 -355 l-11 -120 -68 126 c-38 69 -104 166 -147 215
l-78 89 112 0 c105 0 274 57 302 102 31 50 25 8 -8 -57z m2341 -822 c93 -114
109 -143 73 -130 -89 32 -263 19 -349 -26 l-82 -43 48 117 c26 65 58 184 70
264 l24 147 48 -91 c26 -50 102 -157 168 -238z m-2404 12 c1 -49 104 -246 185
-353 58 -77 70 -104 43 -94 -85 33 -284 72 -378 74 -55 1 -122 8 -149 16 l-50
14 63 26 c97 40 206 160 231 257 22 80 55 116 55 60z m1808 -586 c-16 -54 -35
-174 -42 -266 l-12 -168 -69 83 c-71 85 -167 145 -275 171 -59 14 -59 14 42
50 110 39 301 154 346 208 41 51 44 32 10 -78z m-975 -172 c65 -12 138 -25
164 -30 42 -8 33 -18 -70 -79 -64 -39 -171 -117 -236 -174 -74 -65 -113 -89
-103 -64 44 113 36 238 -21 352 l-58 111 104 -47 c57 -26 156 -57 220 -69z"/>
</g>
</svg>
